# AST/ASF file generated using VICON BodyLanguage
# -----------------------------------------------
:version 1.10
:name VICON
:units
  mass 1.0
  length 0.45
  angle deg
:documentation
   .ast/.asf automatically generated from VICON data using
   VICON BodyBuilder and BodyLanguage model FoxedUp or BRILLIANT.MOD
:root
   order TX TY TZ RX RY RZ
   axis XYZ
   position 0 0 0  
   orientation 0 0 0 
:bonedata
  begin
     id 1 
     name lhipjoint
     direction 0.567149 -0.783011 0.255413 
     length 2.28399 
     axis 0 0 0  XYZ
  end
  begin
     id 2 
     name lfemur
     direction 0.34202 -0.939693 0  
     length 7.34031  
     axis 0 0 20  XYZ
    dof rx ry rz
    limits (-160.0 20.0)
           (-70.0 70.0)
           (-60.0 70.0)
  end
  begin
     id 3 
     name ltibia
     direction 0.34202 -0.939693 0   
     length 6.9833   
     axis 0 0 20   XYZ
    dof rx
    limits (-10.0 170.0)
  end
  begin
     id 4 
     name lfoot
     direction 0.136498 -0.375025 0.91691   
     length 2.33665   
     axis -90 7.62852e-016 20   XYZ
    dof rx rz
    limits (-45.0 90.0)
           (-70.0 20.0)
  end
  begin
     id 5 
     name ltoes
     direction 1.5367e-011 -4.21617e-011 1   
     length 1.15039   
     axis -90 7.62852e-016 20   XYZ
    dof rx
    limits (-90.0 20.0)
  end
  begin
     id 6 
     name rhipjoint
     direction -0.602854 -0.758518 0.247423   
     length 2.35775  
     axis 0 0 0  XYZ 
  end
  begin
     id 7 
     name rfemur
     direction -0.34202 -0.939693 0   
     length 7.43932   
     axis 0 0 -20   XYZ
    dof rx ry rz
    limits (-160.0 20.0)
           (-70.0 70.0)
           (-70.0 60.0)
  end
  begin
     id 8 
     name rtibia
     direction -0.34202 -0.939693 0   
     length 7.11893   
     axis 0 0 -20   XYZ
    dof rx
    limits (-10.0 170.0)
 end
 begin
     id 9 
     name rfoot
     direction -0.131771 -0.362037 0.922803   
     length 2.53019  
     axis -90 -7.62852e-016 -20   XYZ
    dof rx rz
    limits (-45.0 90.0)
           (-20.0 70.0)
  end
  begin
     id 10 
     name rtoes
     direction -1.53733e-011 -4.21932e-011 1   
     length 1.24596   
     axis -90 -7.62852e-016 -20   XYZ
    dof rx
    limits (-90.0 20.0)
  end
  begin
     id 11 
     name lowerback
     direction 0.0235427 0.999023 -0.0374125   
     length 2.21768   
     axis 0 0 0   XYZ
    dof rx ry rz
    limits (-20.0 45.0)
           (-30.0 30.0)
           (-30.0 30.0)
  end
  begin
     id 12 
     name upperback
     direction 0.0302156 0.996818 -0.073759   
     length 2.20352   
     axis 0 0 0   XYZ
    dof rx ry rz
    limits (-20.0 45.0)
           (-30.0 30.0)
           (-30.0 30.0)
  end
  begin
     id 13 
     name thorax
     direction 0.0187169 0.998235 -0.0563532   
     length 2.22103   
     axis 0 0 0   XYZ
    dof rx ry rz
    limits (-20.0 45.0)
           (-30.0 30.0)
           (-30.0 30.0)
  end
  begin
     id 14 
     name lowerneck
     direction -0.119528 0.987423 0.103481   
     length 1.72948   
     axis 0 0 0   XYZ
    dof rx ry rz
    limits (-20.0 45.0)
           (-30.0 30.0)
           (-30.0 30.0)
  end
  begin
     id 15 
     name upperneck
     direction 0.248049 0.963095 -0.104496   
     length 1.74979   
     axis 0 0 0   XYZ
    dof rx ry rz
    limits (-20.0 45.0)
           (-30.0 30.0)
           (-30.0 30.0)
  end
  begin
     id 16
     name head
     direction 0.0903589 0.994284 -0.056876  
     length 1.78268  
     axis 0 0 0   XYZ
    dof rx ry rz
    limits (-20.0 45.0)
           (-30.0 30.0)
           (-30.0 30.0)
  end
  begin
     id 17 
     name lclavicle
     direction 0.946008 0.242039 -0.215608  
     length 3.80783  
     axis 0 0 0   XYZ
    dof ry rz
    limits (-20.0 10.0)
           (0.0 20.0)
  end
  begin
     id 18 
     name lhumerus
     direction 1 -4.48991e-011 -2.25695e-027   
     length 4.83125   
     axis 180 -30 -90   XYZ
    dof rx ry rz
    limits (-60.0 90.0)
           (-90.0 90.0)
           (-90.0 90.0)
  end
  begin
     id 19
     name lradius
     direction 0.999991 0.00366712 -0.00211721   
     length 3.00391   
     axis 180 -30 -90   XYZ
    dof rx
    limits (-10.0 170.0)
  end
  begin
     id 20
     name lwrist
     direction 0.999991 0.00393016 -0.00141978   
     length 1.50195   
     axis -1.00488e-014 90 90   XYZ
    dof ry
    limits (-180.0 0.0)
 end
  begin
     id 21 
     name lhand
     direction 1 -4.49123e-011 2.72098e-026   
     length 1.2717   
     axis -1.73687e-014 90 90   XYZ
    dof rx rz
    limits (-90.0 90.0)
           (-45.0 45.0)
  end
  begin
     id 22 
     name lfingers
     direction 1 -4.48678e-011 5.4479e-026   
     length 1.02528   
     axis -3.47372e-014 90 90   XYZ
    dof rx
    limits (0.0 90.0)
  end
  begin
     id 23
     name lthumb
     direction 0.707107 -6.34851e-011 0.707107   
     length 1.4721   
     axis -90 45 -1.62303e-014   XYZ
    dof rx rz
    limits (-45.0 45.0)
           (-45.0 45.0)
  end
  begin
     id 24 
     name rclavicle
     direction -0.981723 0.189447 -0.0181673   
     length 3.74989  
     axis 0 0 0   XYZ 
    dof ry rz
    limits (-10.0 20.0)
           (-20.0 0.0)
  end
  begin
     id 25 
     name rhumerus
     direction -1 -4.48985e-011 2.38206e-027  
     length 4.61118   
     axis 180 30 90   XYZ
    dof rx ry rz
    limits (-90.0 60.0)
           (-90.0 90.0)
           (-90.0 90.0)
  end
  begin
     id 26 
     name rradius
     direction -1 -4.48977e-011 7.41019e-027   
     length 2.91491   
     axis 180 30 90   XYZ
    dof rx
    limits (-10.0 170.0)
  end
  begin
     id 27 
     name rwrist
     direction -1 -4.48549e-011 1.3624e-026   
     length 1.45745   
     axis -1.00488e-014 -90 -90   XYZ
    dof ry
    limits (-180.0 0.0)
  end
  begin
     id 28
     name rhand
     direction -1 -4.49107e-011 2.72109e-026   
     length 1.30769   
     axis -1.73687e-014 -90 -90   XYZ
    dof rx rz
    limits (-90.0 90.0)
           (-45.0 45.0)
  end
  begin
     id 29
     name rfingers
     direction -1 -4.48919e-011 5.44468e-026   
     length 1.05429   
     axis -3.47372e-014 -90 -90   XYZ
    dof rx
    limits (0.0 90.0)
  end
  begin
     id 30
     name rthumb
     direction -0.707107 -6.35315e-011 0.707107   
     length 1.51376   
     axis -90 -45 1.62303e-014   XYZ
    dof rx rz
    limits (-45.0 45.0)
           (-45.0 45.0)
  end
:hierarchy
  begin
    root lhipjoint rhipjoint lowerback
    lhipjoint lfemur
    lfemur ltibia
    ltibia lfoot
    lfoot ltoes
    rhipjoint rfemur
    rfemur rtibia
    rtibia rfoot
    rfoot rtoes
    lowerback upperback
    upperback thorax
    thorax lowerneck lclavicle rclavicle
    lowerneck upperneck
    upperneck head
    lclavicle lhumerus
    lhumerus lradius
    lradius lwrist
    lwrist lhand lthumb
    lhand lfingers
    rclavicle rhumerus
    rhumerus rradius
    rradius rwrist
    rwrist rhand rthumb
    rhand rfingers
  end

#!OML:ASF X:\für Bonn\!DataBase\2005_08_11_Bastian_Final\c3d\Bastian.ASF
:FULLY-SPECIFIED
:DEGREES
1
root 0.291901 17.4012 21.7374 -732.612 -169.755 -719.733
lowerback 13.4463 -2.53766 -2.85587
upperback 4.82377 -4.26563 0.282368
thorax -2.225 -2.37742 2.54433
lowerneck -12.3763 -5.88327 -7.15567
upperneck 11.927 -8.59073 10.8166
head 6.44539 -3.81447 3.78956
rclavicle 8.66344e-015 -9.85227e-015
rhumerus -38.9893 4.63093 -89.1436
rradius 32.2807
rwrist -7.44572
rhand -16.6952 3.75785
rfingers 7.12502
rthumb 9.52942 -26.0067
lclavicle 8.66344e-015 -9.85227e-015
lhumerus -28.0714 6.24589 83.6954
lradius 9.44047
lwrist 0.150225
lhand -11.6342 -8.73936
lfingers 7.12502
lthumb 14.4095 20.7404
rfemur 4.64045 2.80817 25.1081
rtibia 29.8284
rfoot -17.2132 -20.0777
rtoes 11.6679
lfemur 1.3317 4.31602 -15.7905
ltibia 34.1102
lfoot -10.9795 -5.63091
ltoes -28.2843
2
root 0.285696 17.3993 21.715 -732.624 -169.778 -719.733
lowerback 13.3907 -2.52817 -2.76212
upperback 4.84806 -4.24145 0.261317
thorax -2.1796 -2.36651 2.462
lowerneck -12.4242 -5.88165 -7.02507
upperneck 11.9066 -8.59524 10.7457
head 6.43875 -3.81438 3.74375
rclavicle 1.06358e-014 -4.50993e-015
rhumerus -38.9091 4.48777 -89.091
rradius 32.1735
rwrist -7.42402
rhand -16.6471 3.65482
rfingers 7.12502
rthumb 9.5758 -26.1076
lclavicle 1.06358e-014 -4.50993e-015
lhumerus -28.3252 5.37869 83.945
lradius 9.70592
lwrist 0.675725
lhand -11.5342 -8.62961
lfingers 7.12502
lthumb 14.5058 20.8433
rfemur 4.75005 2.79939 25.1153
rtibia 29.8146
rfoot -17.2307 -20.0925
rtoes 11.5202
lfemur 1.41234 3.90117 -15.9834
ltibia 33.2171
lfoot -10.8886 -5.90468
ltoes -29.0248
3
root 0.277865 17.397 21.6926 -732.635 -169.813 -719.735
lowerback 13.319 -2.51409 -2.67013
upperback 4.88384 -4.21192 0.25271
thorax -2.11261 -2.35411 2.39134
lowerneck -12.5012 -5.89449 -6.94653
upperneck 11.9034 -8.61859 10.7207
head 6.44875 -3.82145 3.71847
rclavicle 0 9.93923e-017
rhumerus -38.8087 4.35667 -89.0078
rradius 32.0457
rwrist -7.39544
rhand -16.6109 3.545
rfingers 7.12502
rthumb 9.61078 -26.2158
lclavicle 0 9.93923e-017
lhumerus -28.5839 4.52269 84.2104
lradius 10.0271
lwrist 1.34292
lhand -11.4528 -8.49497
lfingers 7.12502
lthumb 14.5843 20.9723
rfemur 4.85446 2.85563 25.127
rtibia 29.8129
rfoot -17.2959 -20.1294
rtoes 11.2783
lfemur 1.50781 3.45554 -16.1695
ltibia 32.3225
lfoot -10.7857 -6.20176
ltoes -28.9224
4
root 0.270049 17.3928 21.6703 -732.646 -169.84 -719.737
lowerback 13.2569 -2.51045 -2.59107
upperback 4.90153 -4.19619 0.245359
thorax -2.06782 -2.34701 2.33258
lowerneck -12.549 -5.8966 -6.83822
upperneck 11.9165 -8.62699 10.6435
head 6.45361 -3.82414 3.67384
rclavicle 9.87323e-015 2.60905e-016
rhumerus -38.7841 4.31216 -88.9487
rradius 31.9916
rwrist -7.38347
rhand -16.5551 3.41115
rfingers 7.12502
rthumb 9.66466 -26.3471
lclavicle 9.87323e-015 2.60905e-016
lhumerus -28.8078 3.58535 84.597
lradius 10.2468
lwrist 2.34889
lhand -11.5018 -8.32628
lfingers 7.12502
lthumb 14.537 21.1444
rfemur 4.95473 2.89231 25.1405
rtibia 29.829
rfoot -17.3367 -20.1771
rtoes 10.9764
lfemur 1.62713 3.01364 -16.3356
ltibia 31.4279
lfoot -10.741 -6.52619
ltoes -28.3364
5
root 0.260951 17.3903 21.6474 -732.638 -169.864 -719.707
lowerback 13.1649 -2.51612 -2.48919
upperback 4.91378 -4.18728 0.254247
thorax -2.01245 -2.34266 2.27719
lowerneck -12.5956 -5.89058 -6.71021
upperneck 11.9152 -8.62378 10.5528
head 6.4511 -3.82145 3.62304
rclavicle -1.11894e-014 1.04362e-014
rhumerus -38.7412 4.19991 -88.858
rradius 31.8994
rwrist -7.31026
rhand -16.523 3.23035
rfingers 7.12502
rthumb 9.6956 -26.5265
lclavicle -1.11894e-014 1.04362e-014
lhumerus -29.0286 2.86739 84.911
lradius 10.4459
lwrist 3.30147
lhand -11.5376 -8.18119
lfingers 7.12502
lthumb 14.5025 21.292
rfemur 5.02325 2.86194 25.1547
rtibia 29.8387
rfoot -17.3842 -20.1681
rtoes 10.7546
lfemur 1.72046 2.47781 -16.4844
ltibia 30.5565
lfoot -10.6234 -6.78288
ltoes -27.1141
6
root 0.250913 17.3869 21.624 -732.655 -169.923 -719.661
lowerback 13.0678 -2.52014 -2.34676
upperback 4.93826 -4.17329 0.244642
thorax -1.94615 -2.33618 2.1785
lowerneck -12.6143 -5.88247 -6.59258
upperneck 11.9112 -8.6295 10.516
head 6.44683 -3.82199 3.59089
rclavicle 3.04265e-014 -6.74625e-015
rhumerus -38.7319 4.1631 -88.8332
rradius 31.858
rwrist -7.33753
rhand -16.4932 3.08301
rfingers 7.12502
rthumb 9.72432 -26.6725
lclavicle 3.04265e-014 -6.74625e-015
lhumerus -29.2442 2.21977 85.1517
lradius 10.6568
lwrist 4.29984
lhand -11.568 -8.04036
lfingers 7.12502
lthumb 14.4733 21.4349
rfemur 5.12057 2.83725 25.1899
rtibia 29.8482
rfoot -17.4201 -20.1383
rtoes 10.5983
lfemur 1.84269 1.94178 -16.6107
ltibia 29.7124
lfoot -10.3926 -7.05272
ltoes -25.4658
7
root 0.240568 17.3842 21.6007 -732.65 -169.953 -719.639
lowerback 12.9581 -2.53107 -2.25179
upperback 4.9564 -4.17278 0.250373
thorax -1.87435 -2.33639 2.12351
lowerneck -12.6311 -5.88406 -6.49898
upperneck 11.8834 -8.63479 10.4564
head 6.43457 -3.82435 3.55552
rclavicle 1.44041e-014 6.68413e-015
rhumerus -38.71 4.17193 -88.7867
rradius 31.784
rwrist -7.36147
rhand -16.5153 2.96689
rfingers 7.12502
rthumb 9.70299 -26.7896
lclavicle 1.44041e-014 6.68413e-015
lhumerus -29.3922 2.10186 85.2181
lradius 10.7366
lwrist 4.94228
lhand -11.5856 -7.98473
lfingers 7.12502
lthumb 14.4563 21.4917
rfemur 5.20882 2.87145 25.217
rtibia 29.8405
rfoot -17.4522 -20.1877
rtoes 10.2884
lfemur 1.92542 1.35516 -16.773
ltibia 28.9104
lfoot -10.0843 -7.25353
ltoes -23.7338
8
root 0.228935 17.3817 21.5775 -732.666 -170.007 -719.591
lowerback 12.8654 -2.54506 -2.12672
upperback 4.98213 -4.17503 0.251786
thorax -1.80607 -2.33828 2.04845
lowerneck -12.695 -5.87992 -6.37097
upperneck 11.912 -8.6453 10.3993
head 6.44741 -3.82593 3.51352
rclavicle -8.22937e-015 7.8023e-015
rhumerus -38.6988 4.1368 -88.7506
rradius 31.6937
rwrist -7.2966
rhand -16.5252 2.90175
rfingers 7.12502
rthumb 9.69342 -26.8552
lclavicle -8.22937e-015 7.8023e-015
lhumerus -29.4766 2.43748 85.0741
lradius 10.7053
lwrist 5.20049
lhand -11.5824 -7.93524
lfingers 7.12502
lthumb 14.4594 21.541
rfemur 5.32002 2.82788 25.2359
rtibia 29.8234
rfoot -17.4638 -20.1181
rtoes 10.0708
lfemur 2.03459 0.797077 -16.9009
ltibia 28.1572
lfoot -9.78705 -7.43834
ltoes -22.059
